<svg xmlns="http://www.w3.org/2000/svg" viewBox="0 0 1200 300" font-family="ui-monospace, SFMono-Regular, Menlo, Consolas, monospace">
  <rect x="16" y="16" width="1168" height="268" rx="22" fill="#121713" stroke="#1f261f"/>

  <!-- wordmark -->
  <polygon points="64,86 80,96 64,106" fill="#b1e57c"/>
  <text x="92" y="106" font-size="52" font-weight="600" fill="#e8ede6" letter-spacing="-1">aisdlc</text>

  <!-- evidence line, top right -->
  <text x="1152" y="72" font-size="13" fill="#5d675b" text-anchor="end">docs/features/payment-retries/</text>
  <text x="1152" y="94" font-size="13" fill="#5d675b" text-anchor="end">state: <tspan fill="#b1e57c" font-weight="600">BUILD</tspan>, next: aisdlc-implement</text>

  <!-- tagline -->
  <text x="64" y="152" font-size="21" fill="#9aa697" font-family="ui-sans-serif, system-ui, 'Segoe UI', sans-serif">Agents write code. <tspan fill="#e8ede6" font-weight="600">aisdlc runs the process.</tspan></text>
  <text x="64" y="180" font-size="14" fill="#5d675b" font-family="ui-sans-serif, system-ui, 'Segoe UI', sans-serif">EARS specs, six evidence gates, hash-bound approvals, and an evidence log your agent cannot fake.</text>

  <!-- pipeline -->
  <g font-size="13" text-anchor="middle">
    <rect x="64"  y="206" width="98" height="34" rx="8" fill="#0c100d" stroke="#1f261f"/>
    <text x="113" y="228" fill="#9aa697">discover</text>
    <rect x="176" y="206" width="98" height="34" rx="8" fill="#0c100d" stroke="#1f261f"/>
    <text x="225" y="228" fill="#9aa697">spec</text>
    <rect x="288" y="206" width="98" height="34" rx="8" fill="#0c100d" stroke="#1f261f"/>
    <text x="337" y="228" fill="#9aa697">plan</text>
    <rect x="400" y="206" width="98" height="34" rx="8" fill="#0c100d" stroke="#1f261f"/>
    <text x="449" y="228" fill="#9aa697">tasks</text>
    <rect x="512" y="206" width="98" height="34" rx="8" fill="#b1e57c" stroke="#b1e57c">
      <animate attributeName="opacity" values="1;0.72;1" dur="2.4s" repeatCount="indefinite"/>
    </rect>
    <text x="561" y="228" fill="#0c100d" font-weight="600">build</text>
    <rect x="624" y="206" width="98" height="34" rx="8" fill="#0c100d" stroke="#1f261f"/>
    <text x="673" y="228" fill="#9aa697">verify</text>
    <rect x="736" y="206" width="98" height="34" rx="8" fill="#0c100d" stroke="#1f261f"/>
    <text x="785" y="228" fill="#9aa697">accept</text>
    <rect x="848" y="206" width="98" height="34" rx="8" fill="#0c100d" stroke="#1f261f"/>
    <text x="897" y="228" fill="#9aa697">release</text>
    <rect x="960" y="206" width="98" height="34" rx="8" fill="#0c100d" stroke="#1f261f"/>
    <text x="1009" y="228" fill="#9aa697">operate</text>
  </g>

  <!-- evidence footer -->
  <text x="1152" y="268" font-size="12" fill="#5d675b" text-anchor="end">evidence/20260906T154412-full.json · exit 0 · sha256:e3f1…9b7c</text>
</svg>
